<svg width="116" height="116" viewBox="0 0 116 116" fill="none" xmlns="http://www.w3.org/2000/svg">
<path d="M100.016 0L93.6758 5.4379H100.016V0Z" fill="#005A94"/>
<path d="M43.1948 25.3768H73.1451L100.016 0H71.1359C70.1005 0 69.1054 0.401502 68.3599 1.12007L43.1948 25.3768Z" fill="#106CA6"/>
<path d="M79.1595 38.6086H36.626V22C36.626 20.8954 37.5214 20 38.626 20H77.1593C78.2639 20 79.1593 20.8954 79.1593 22L79.1595 38.6086ZM41.4593 33.7752H74.326V24.8336H41.4593V33.7752Z" fill="#F3BD6D"/>
<path d="M16.6865 0L23.0268 5.4379H16.6865V0Z" fill="#0A649E"/>
<path d="M73.1451 25.3768H43.1949L16.626 0H45.6073C46.3839 0 47.1302 0.301123 47.6893 0.840045L73.1451 25.3768Z" fill="url(#paint0_linear_53542_321)"/>
<path d="M101 70C101 46.2518 81.7482 27 58 27C34.2517 27 15 46.2518 15 70C15 93.7482 34.2518 113 58 113C81.7482 113 101 93.7482 101 70Z" fill="url(#paint1_linear_53542_321)"/>
<path d="M100 70C100 46.804 81.196 28 58 28C34.804 28 16 46.804 16 70C16 93.196 34.804 112 58 112C81.196 112 100 93.196 100 70Z" fill="url(#paint2_linear_53542_321)"/>
<path d="M57.9999 104.879C77.2632 104.879 92.8792 89.2635 92.8792 70.0002C92.8792 50.7368 77.2632 35.1208 57.9999 35.1208C38.7366 35.1208 23.1206 50.7368 23.1206 70.0002C23.1206 89.2635 38.7366 104.879 57.9999 104.879Z" fill="#E9B76E"/>
<path d="M57.9999 104.879C77.2632 104.879 92.8792 89.2635 92.8792 70.0002C92.8792 50.7368 77.2632 35.1208 57.9999 35.1208C38.7366 35.1208 23.1206 50.7368 23.1206 70.0002C23.1206 89.2635 38.7366 104.879 57.9999 104.879Z" fill="url(#paint3_radial_53542_321)"/>
<path d="M57.9999 104.879C77.2632 104.879 92.8792 89.2635 92.8792 70.0002C92.8792 50.7368 77.2632 35.1208 57.9999 35.1208C38.7366 35.1208 23.1206 50.7368 23.1206 70.0002C23.1206 89.2635 38.7366 104.879 57.9999 104.879Z" fill="url(#paint4_radial_53542_321)"/>
<path d="M58.0003 104.551C77.1762 104.551 92.7213 89.0059 92.7213 69.83C92.7213 50.6541 77.1762 35.109 58.0003 35.109C38.8244 35.109 23.2793 50.6541 23.2793 69.83C23.2793 89.0059 38.8244 104.551 58.0003 104.551Z" fill="url(#paint5_radial_53542_321)"/>
<g filter="url(#filter0_f_53542_321)">
<path d="M57.3623 87.0849C57.6818 86.9141 58.0624 86.9156 58.3807 87.0888L72.3884 94.7105C73.1777 95.14 74.3852 94.2682 74.265 93.3578L72.0368 76.0477C71.9905 75.6965 71.7923 75.6916 72.0368 75.4421L83.1833 64.0719C84.425 62.8302 83.6052 60.8607 82.7182 60.7153L67.0194 59.6033C66.6674 59.5456 66.3646 59.3155 66.2073 58.9863L58.9451 43.7881C58.5422 42.9449 57.3735 42.9472 56.9742 43.7919L49.7933 58.9824C49.6366 59.3138 49.3325 59.5457 48.9787 59.6033L32.644 61.0491C32.644 61.0491 31.5374 62.8823 32.7301 64.0747L43.9332 75.4281C44.187 75.6853 43.9907 75.7925 43.9332 76.1542L41.2226 93.3315C41.077 94.2485 42.3178 95.1276 43.1189 94.6993L57.3623 87.0849Z" fill="#A96800" fill-opacity="0.9"/>
</g>
<path d="M57.5191 81.0019C57.7971 80.8533 58.1283 80.8545 58.4054 81.0053L70.5956 87.6381C71.2825 88.0118 72.3333 87.2532 72.2287 86.4608L70.2896 71.3968C70.2493 71.0912 70.0768 71.0869 70.2896 70.8698L79.9898 60.9749C81.0704 59.8943 80.3622 58.1959 79.5903 58.0694L65.9232 57.0861C65.6169 57.0359 65.3533 56.8357 65.2164 56.5492L58.8965 43.3229C58.5459 42.5891 57.5288 42.5911 57.1813 43.3263L50.9322 56.5457C50.7958 56.8342 50.5312 57.0359 50.2233 57.0861L36.0828 58.3379C36.0828 58.3379 35.0451 59.9396 36.083 60.9773L45.8325 70.8576C46.0534 71.0814 45.8825 71.1747 45.8325 71.4895L43.4736 86.438C43.3468 87.236 44.4266 88.001 45.1238 87.6283L57.5191 81.0019Z" fill="url(#paint6_linear_53542_321)"/>
<path d="M57.5402 79.6307C57.8272 79.4776 58.169 79.4793 58.4548 79.6352L70.5413 86.2283C71.2502 86.6149 72.0867 86.0143 71.9787 85.1962L70.0172 70.337C69.9756 70.0216 70.0802 69.7045 70.2998 69.4805L79.9465 59.6401C80.5194 59.0558 80.2043 58.0492 79.4077 57.9186L65.937 55.7102C65.6216 55.6585 65.3501 55.4526 65.2086 55.1579L58.8909 42.0004C58.5277 41.244 57.4782 41.2481 57.121 42.0074L50.9382 55.1512C50.7977 55.4497 50.5242 55.6587 50.2058 55.7106L36.6622 57.9188C35.8638 58.0489 35.5494 59.0588 36.1254 59.6426L45.8207 69.4679C46.0486 69.6989 46.1534 70.0293 46.1018 70.3542L43.7502 85.16C43.6195 85.9831 44.4565 86.6078 45.1759 86.2242L57.5402 79.6307Z" fill="url(#paint7_linear_53542_321)"/>
<path d="M48.6387 93.9684C48.708 93.7231 48.812 93.5071 48.9507 93.3204C49.0947 93.1338 49.2627 92.9791 49.4547 92.8564C49.652 92.7284 49.8707 92.6324 50.1107 92.5684C50.3507 92.5044 50.604 92.4724 50.8707 92.4724C51.1907 92.4724 51.476 92.5124 51.7267 92.5924C51.9773 92.6724 52.188 92.7871 52.3587 92.9364C52.5347 93.0804 52.6653 93.2538 52.7507 93.4564C52.8413 93.6591 52.8867 93.8831 52.8867 94.1284C52.8867 94.4058 52.8467 94.6591 52.7667 94.8884C52.6867 95.1178 52.564 95.3391 52.3987 95.5524C52.2333 95.7658 52.0227 95.9791 51.7667 96.1924C51.516 96.4004 51.2173 96.6244 50.8707 96.8644L50.2307 97.2324H53.0627V98.1284H48.7187V97.4164L49.9827 96.4964C50.1853 96.3364 50.3987 96.1711 50.6227 96.0004C50.8467 95.8244 51.052 95.6458 51.2387 95.4644C51.4307 95.2778 51.588 95.0858 51.7107 94.8884C51.8333 94.6911 51.8947 94.4884 51.8947 94.2804C51.8947 94.0084 51.8013 93.7951 51.6147 93.6404C51.4333 93.4804 51.18 93.4004 50.8547 93.4004C50.668 93.4004 50.5 93.4271 50.3507 93.4804C50.2067 93.5284 50.076 93.5951 49.9587 93.6804C49.8467 93.7604 49.7507 93.8564 49.6707 93.9684C49.5907 94.0751 49.5267 94.1871 49.4787 94.3044L48.6387 93.9684Z" fill="#845100"/>
<path d="M53.64 95.3284C53.64 94.9178 53.6933 94.5391 53.8 94.1924C53.9067 93.8404 54.0613 93.5391 54.264 93.2884C54.4667 93.0324 54.7173 92.8324 55.016 92.6884C55.32 92.5444 55.6667 92.4724 56.056 92.4724C56.4507 92.4724 56.7973 92.5444 57.096 92.6884C57.4 92.8324 57.6533 93.0324 57.856 93.2884C58.064 93.5391 58.2213 93.8404 58.328 94.1924C58.4347 94.5391 58.488 94.9178 58.488 95.3284C58.488 95.7444 58.4347 96.1284 58.328 96.4804C58.2267 96.8271 58.0747 97.1284 57.872 97.3844C57.6693 97.6351 57.416 97.8324 57.112 97.9764C56.8133 98.1151 56.4667 98.1844 56.072 98.1844C55.6773 98.1844 55.328 98.1151 55.024 97.9764C54.7253 97.8324 54.472 97.6351 54.264 97.3844C54.0613 97.1284 53.9067 96.8271 53.8 96.4804C53.6933 96.1284 53.64 95.7444 53.64 95.3284ZM54.632 95.3284C54.632 95.9524 54.7573 96.4324 55.008 96.7684C55.264 97.0991 55.6187 97.2644 56.072 97.2644C56.5573 97.2644 56.9147 97.0991 57.144 96.7684C57.3787 96.4324 57.496 95.9524 57.496 95.3284C57.496 94.7044 57.376 94.2271 57.136 93.8964C56.9013 93.5604 56.5413 93.3924 56.056 93.3924C55.5867 93.3924 55.232 93.5631 54.992 93.9044C54.752 94.2404 54.632 94.7151 54.632 95.3284Z" fill="#845100"/>
<path d="M59.0215 93.9684C59.0908 93.7231 59.1948 93.5071 59.3335 93.3204C59.4775 93.1338 59.6455 92.9791 59.8375 92.8564C60.0348 92.7284 60.2535 92.6324 60.4935 92.5684C60.7335 92.5044 60.9868 92.4724 61.2535 92.4724C61.5735 92.4724 61.8588 92.5124 62.1095 92.5924C62.3602 92.6724 62.5708 92.7871 62.7415 92.9364C62.9175 93.0804 63.0482 93.2538 63.1335 93.4564C63.2242 93.6591 63.2695 93.8831 63.2695 94.1284C63.2695 94.4058 63.2295 94.6591 63.1495 94.8884C63.0695 95.1178 62.9468 95.3391 62.7815 95.5524C62.6162 95.7658 62.4055 95.9791 62.1495 96.1924C61.8988 96.4004 61.6002 96.6244 61.2535 96.8644L60.6135 97.2324H63.4455V98.1284H59.1015V97.4164L60.3655 96.4964C60.5682 96.3364 60.7815 96.1711 61.0055 96.0004C61.2295 95.8244 61.4348 95.6458 61.6215 95.4644C61.8135 95.2778 61.9708 95.0858 62.0935 94.8884C62.2162 94.6911 62.2775 94.4884 62.2775 94.2804C62.2775 94.0084 62.1842 93.7951 61.9975 93.6404C61.8162 93.4804 61.5628 93.4004 61.2375 93.4004C61.0508 93.4004 60.8828 93.4271 60.7335 93.4804C60.5895 93.5284 60.4588 93.5951 60.3415 93.6804C60.2295 93.7604 60.1335 93.8564 60.0535 93.9684C59.9735 94.0751 59.9095 94.1871 59.8615 94.3044L59.0215 93.9684Z" fill="#845100"/>
<path d="M64.0308 93.7604C64.1001 93.5524 64.2041 93.3684 64.3428 93.2084C64.4868 93.0484 64.6521 92.9124 64.8388 92.8004C65.0308 92.6884 65.2441 92.6031 65.4788 92.5444C65.7135 92.4858 65.9588 92.4564 66.2148 92.4564C66.5081 92.4564 66.7775 92.4911 67.0228 92.5604C67.2681 92.6244 67.4815 92.7178 67.6628 92.8404C67.8441 92.9631 67.9855 93.1124 68.0868 93.2884C68.1881 93.4591 68.2388 93.6511 68.2388 93.8644C68.2388 94.1844 68.1535 94.4591 67.9828 94.6884C67.8175 94.9178 67.6015 95.0698 67.3348 95.1444C67.4521 95.1711 67.5721 95.2164 67.6948 95.2804C67.8175 95.3391 67.9268 95.4218 68.0228 95.5284C68.1241 95.6298 68.2041 95.7578 68.2628 95.9124C68.3268 96.0618 68.3588 96.2431 68.3588 96.4564C68.3588 96.7284 68.3028 96.9711 68.1908 97.1844C68.0788 97.3978 67.9268 97.5791 67.7348 97.7284C67.5481 97.8778 67.3268 97.9924 67.0708 98.0724C66.8148 98.1524 66.5428 98.1924 66.2548 98.1924C66.0308 98.1924 65.7988 98.1684 65.5588 98.1204C65.3188 98.0671 65.0895 97.9844 64.8708 97.8724C64.6575 97.7604 64.4655 97.6164 64.2948 97.4404C64.1295 97.2644 64.0041 97.0511 63.9188 96.8004L64.7988 96.4324C64.8575 96.5604 64.9348 96.6778 65.0308 96.7844C65.1321 96.8858 65.2441 96.9738 65.3668 97.0484C65.4948 97.1178 65.6281 97.1711 65.7668 97.2084C65.9055 97.2458 66.0415 97.2644 66.1748 97.2644C66.3401 97.2644 66.4948 97.2484 66.6388 97.2164C66.7828 97.1791 66.9081 97.1258 67.0148 97.0564C67.1215 96.9871 67.2041 96.9044 67.2628 96.8084C67.3268 96.7071 67.3588 96.5924 67.3588 96.4644C67.3588 96.3151 67.3241 96.1924 67.2548 96.0964C67.1855 95.9951 67.0895 95.9178 66.9668 95.8644C66.8495 95.8058 66.7081 95.7658 66.5428 95.7444C66.3775 95.7178 66.1961 95.7044 65.9988 95.7044H65.4548V94.8244H66.0308C66.3988 94.8244 66.6921 94.7524 66.9108 94.6084C67.1348 94.4644 67.2468 94.2831 67.2468 94.0644C67.2468 93.9524 67.2175 93.8538 67.1588 93.7684C67.1055 93.6831 67.0281 93.6111 66.9268 93.5524C66.8255 93.4884 66.7081 93.4431 66.5748 93.4164C66.4415 93.3844 66.2948 93.3684 66.1348 93.3684C65.9641 93.3684 65.8121 93.3871 65.6788 93.4244C65.5455 93.4564 65.4281 93.5071 65.3268 93.5764C65.2255 93.6404 65.1375 93.7204 65.0628 93.8164C64.9881 93.9071 64.9188 94.0111 64.8548 94.1284L64.0308 93.7604Z" fill="#845100"/>
<defs>
<filter id="filter0_f_53542_321" x="26.1768" y="37.157" width="63.6392" height="63.6664" filterUnits="userSpaceOnUse" color-interpolation-filters="sRGB">
<feFlood flood-opacity="0" result="BackgroundImageFix"/>
<feBlend mode="normal" in="SourceGraphic" in2="BackgroundImageFix" result="shape"/>
<feGaussianBlur stdDeviation="3" result="effect1_foregroundBlur_53542_321"/>
</filter>
<linearGradient id="paint0_linear_53542_321" x1="44.8856" y1="0" x2="44.8856" y2="25.3768" gradientUnits="userSpaceOnUse">
<stop stop-color="#117DC1"/>
<stop offset="1" stop-color="#1599EC"/>
</linearGradient>
<linearGradient id="paint1_linear_53542_321" x1="40.1707" y1="27" x2="105.195" y2="129.78" gradientUnits="userSpaceOnUse">
<stop offset="0.0572917" stop-color="#FFDE9D"/>
<stop offset="0.354067" stop-color="#DA9F4D"/>
<stop offset="0.380208" stop-color="#FFD98C"/>
</linearGradient>
<linearGradient id="paint2_linear_53542_321" x1="61.5285" y1="27.9941" x2="52.1933" y2="121.036" gradientUnits="userSpaceOnUse">
<stop offset="0.254069" stop-color="#FFF4D8"/>
<stop offset="0.457141" stop-color="#EFAD4F"/>
<stop offset="0.594916" stop-color="#FFF4D8"/>
</linearGradient>
<radialGradient id="paint3_radial_53542_321" cx="0" cy="0" r="1" gradientUnits="userSpaceOnUse" gradientTransform="translate(57.9999 70.0002) rotate(90) scale(34.8793)">
<stop offset="0.591475" stop-color="#F7BF6F"/>
<stop offset="1" stop-color="#DFAA5D"/>
</radialGradient>
<radialGradient id="paint4_radial_53542_321" cx="0" cy="0" r="1" gradientUnits="userSpaceOnUse" gradientTransform="translate(58 70.0001) rotate(-114.32) scale(34.7295 38.1628)">
<stop offset="0.0689457" stop-color="#FFF0C8"/>
<stop offset="1" stop-color="#F6B450"/>
</radialGradient>
<radialGradient id="paint5_radial_53542_321" cx="0" cy="0" r="1" gradientUnits="userSpaceOnUse" gradientTransform="translate(58.0003 70.9013) rotate(90) scale(34.5492 34.8146)">
<stop offset="0.947917" stop-color="#BC812B" stop-opacity="0"/>
<stop offset="1" stop-color="#BB802A"/>
</radialGradient>
<linearGradient id="paint6_linear_53542_321" x1="58.0302" y1="94.3221" x2="58.0091" y2="42.6367" gradientUnits="userSpaceOnUse">
<stop offset="0.364583" stop-color="#FFD98C"/>
<stop offset="0.401142" stop-color="#D79331"/>
</linearGradient>
<linearGradient id="paint7_linear_53542_321" x1="29.6242" y1="102.242" x2="13.2513" y2="80.0489" gradientUnits="userSpaceOnUse">
<stop offset="0.1875" stop-color="#FFFCF4"/>
<stop offset="0.671875" stop-color="#FFF1D7"/>
<stop offset="0.69778" stop-color="#FFFDF7"/>
</linearGradient>
</defs>
</svg>
